<svg xmlns="http://www.w3.org/2000/svg" width="32" height="32" fill="none" viewBox="0 0 32 32">
    <mask id="d7i0fxvdoa" width="32" height="32" x="0" y="0" maskUnits="userSpaceOnUse">
        <path fill="#fff" d="M0 0h32v32H0V0zm1.858 24.485c-1.042 1.042-1.042 2.73 0 3.771l1.885 1.886c1.042 1.041 2.73 1.041 3.772 0L30.142 7.515c1.041-1.042 1.041-2.73 0-3.772l-1.886-1.885c-1.04-1.042-2.73-1.042-3.77 0L1.857 24.485z"/>
    </mask>
    <g fill="#A0A0A0" mask="url(#d7i0fxvdoa)">
        <path fill-rule="evenodd" d="M5.667 10.333l11.2-8.4c.589-.441 1.425-.322 1.867.267.173.23.266.512.266.8v26.667c0 .736-.597 1.333-1.333 1.333-.289 0-.57-.094-.8-.267l-11.2-8.4v-12zM24.324 10.343c-.52-.52-1.365-.52-1.885 0s-.52 1.365 0 1.885c2.08 2.08 2.08 5.463 0 7.542-.52.52-.52 1.364 0 1.885.52.52 1.364.52 1.885 0 3.119-3.119 3.119-8.193 0-11.312z" clip-rule="evenodd"/>
        <path fill-rule="evenodd" d="M26.21 6.57v.001c-.521.52-.521 1.365 0 1.885 4.158 4.159 4.158 10.927 0 15.086-.521.52-.521 1.364 0 1.885.52.52 1.364.52 1.885 0 5.198-5.199 5.198-13.657 0-18.857-.521-.52-1.365-.52-1.885 0z" clip-rule="evenodd"/>
        <path d="M10.667 9.333h-8C1.194 9.333 0 10.527 0 12v8c0 1.473 1.194 2.667 2.667 2.667h8c1.472 0 2.666-1.194 2.666-2.667v-8c0-1.473-1.194-2.667-2.666-2.667z"/>
    </g>
    <path fill="#F93B3D" d="M27.314 2.8L2.8 27.315c-.521.52-.521 1.365 0 1.885.52.521 1.365.521 1.885 0L29.2 4.686c.521-.52.521-1.365 0-1.885-.52-.521-1.365-.521-1.885 0z"/>
</svg>
