<svg width="32" height="32" viewBox="0 0 32 32" fill="none" xmlns="http://www.w3.org/2000/svg">
<path fill-rule="evenodd" clip-rule="evenodd" d="M6.22345 9.90919L16.5366 2.26376C17.1258 1.82695 18.2456 1.68137 18.6875 2.26377C18.8606 2.49195 19 3.21483 19 3.50005V29.5C19 30.2281 18.0733 31 17.3368 31C17.0482 31 16.7674 30.9075 16.5366 30.7364L6.22345 23.091H2.66719C1.19414 23.091 0 21.9106 0 20.4546V12.5456C0 11.0895 1.19414 9.90919 2.66719 9.90919H6.22345ZM24.3288 10.9074C27.4481 13.9906 27.4481 19.0076 24.3288 22.0908C23.8081 22.6055 22.9638 22.6055 22.4431 22.0908C21.9224 21.5761 21.9224 20.7416 22.4431 20.2269C24.5235 18.1719 24.5235 14.8277 22.4431 12.7713C21.9224 12.2566 21.9224 11.4221 22.4431 10.9074C22.9638 10.3927 23.8081 10.3927 24.3288 10.9074ZM26.2152 7.17762C26.7357 6.66317 27.5794 6.66288 28.1002 7.17696C33.2999 12.3179 33.2999 20.6804 28.1002 25.82C27.5795 26.3347 26.7352 26.3347 26.2145 25.82C25.6938 25.3053 25.6938 24.4708 26.2145 23.9561C30.374 19.8447 30.374 13.1536 26.2145 9.04218C25.6938 8.52748 25.6945 7.69232 26.2152 7.17762Z" fill="#A0A0A0"/>
</svg>
