<svg width="32" height="32" viewBox="0 0 32 32" fill="none" xmlns="http://www.w3.org/2000/svg">
<path fill-rule="evenodd" clip-rule="evenodd" d="M2.66667 7.00003L19.3333 7C20.8061 7 22 8.15127 22 9.57143C22 10.9916 22 22.4286 22 22.4286C22 23.8487 20.8061 25 19.3333 25L2.66667 25C1.19391 25 0 23.8488 0 22.4286V9.57146C0 8.15129 1.19391 7.00003 2.66667 7.00003ZM24 12.4168L30.105 9.68233C30.7728 9.38319 31.5657 9.66275 31.8759 10.3067C31.9577 10.4764 32 10.6613 32 10.8484V21.1519C32 21.862 31.403 22.4376 30.6667 22.4376C30.4726 22.4376 30.2809 22.3968 30.105 22.318L24 19.5835V12.4168Z" fill="#A0A0A0"/>
</svg>
