<svg xmlns="http://www.w3.org/2000/svg" width="32" height="32" fill="none" viewBox="0 0 32 32">
    <mask id="7wsinl052a" width="32" height="32" x="0" y="0" maskUnits="userSpaceOnUse">
        <path fill="#fff" d="M0 0h32v32H0V0zm1.858 24.485c-1.042 1.042-1.042 2.73 0 3.771l1.885 1.886c1.042 1.041 2.73 1.041 3.772 0L30.142 7.515c1.041-1.042 1.041-2.73 0-3.772l-1.886-1.885c-1.04-1.042-2.73-1.042-3.77 0L1.857 24.485z"/>
    </mask>
    <g mask="url(#7wsinl052a)">
        <path fill="#A0A0A0" fill-rule="evenodd" d="M2.667 7H19.5c1.473 0 2.5.976 2.5 2.448v13.228C22 24.15 20.973 25 19.5 25H2.667C1.194 25 0 24.14 0 22.667V9.333C0 7.861 1.194 7 2.667 7zM24 12.284l6.105-2.836c.668-.31 1.46-.02 1.77.648.083.176.125.367.125.562v10.685c0 .736-.597 1.333-1.333 1.333-.194 0-.386-.042-.562-.124L24 19.716v-7.432z" clip-rule="evenodd"/>
    </g>
    <path fill="#F93B3D" d="M27.314 2.8L2.8 27.315c-.521.52-.521 1.365 0 1.885.52.521 1.365.521 1.885 0L29.2 4.686c.521-.52.521-1.365 0-1.885-.52-.521-1.365-.521-1.885 0z"/>
</svg>
